<svg xmlns="http://www.w3.org/2000/svg" width="2000" height="1000"><path d="M0 991.12c21-6.55 63-19.686 105-32.747 42-13.06 63-24.675 105-32.555 42-7.881 63 13.627 105-6.849 42-20.475 63-82.132 105-95.529 42-13.396 63 32.65 105 28.545 42-4.104 63-32.275 105-49.066 42-16.79 63-12.367 105-34.887s63-68.723 105-77.714c42-8.99 63 62.344 105 32.762 42-29.581 63-122.565 105-180.67 42-58.103 63-128.636 105-109.849 42 18.788 63 185.473 105 203.788 42 18.314 63-104.369 105-112.214 42-7.846 63 95.283 105 72.985 42-22.298 63-156.492 105-184.474s63 60.477 105 44.566c42-15.91 63-60.836 105-124.121s63-177.763 105-192.306c42-14.542 84 95.675 105 119.594l5 739.621H0Z" fill="#444cf71a"/><path d="M0 991.12c21-6.55 63-19.686 105-32.747 42-13.06 63-24.675 105-32.555 42-7.881 63 13.627 105-6.849 42-20.475 63-82.132 105-95.529 42-13.396 63 32.65 105 28.545 42-4.104 63-32.275 105-49.066 42-16.79 63-12.367 105-34.887s63-68.723 105-77.714c42-8.99 63 62.344 105 32.762 42-29.581 63-122.565 105-180.67 42-58.103 63-128.636 105-109.849 42 18.788 63 185.473 105 203.788 42 18.314 63-104.369 105-112.214 42-7.846 63 95.283 105 72.985 42-22.298 63-156.492 105-184.474s63 60.477 105 44.566c42-15.91 63-60.836 105-124.121s63-177.763 105-192.306c42-14.542 84 95.675 105 119.594" fill="none" stroke="#444cf7" stroke-width="4"/><g fill="#444cf7"><circle cy="991.12" r="8"/><circle cx="105" cy="958.373" r="8"/><circle cx="210" cy="925.818" r="8"/><circle cx="315" cy="918.969" r="8"/><circle cx="420" cy="823.44" r="8"/><circle cx="525" cy="851.985" r="8"/><circle cx="630" cy="802.919" r="8"/><circle cx="735" cy="768.032" r="8"/><circle cx="840" cy="690.318" r="8"/><circle cx="945" cy="723.08" r="8"/><circle cx="1050" cy="542.411" r="8"/><circle cx="1155" cy="432.561" r="8"/><circle cx="1260" cy="636.349" r="8"/><circle cx="1365" cy="524.135" r="8"/><circle cx="1470" cy="597.12" r="8"/><circle cx="1575" cy="412.646" r="8"/><circle cx="1680" cy="457.212" r="8"/><circle cx="1785" cy="333.091" r="8"/><circle cx="1890" cy="140.785" r="8"/><circle cx="1995" cy="260.379" r="8"/></g></svg>