<svg xmlns="http://www.w3.org/2000/svg" width="2000" height="1000"><path d="M0 986.856c21-6.525 63-14.267 105-32.627 42-18.36 63-47.089 105-59.173 42-12.085 63-.228 105-1.249 42-1.02 63 20.049 105-3.856 42-23.904 63-90.375 105-115.666 42-25.291 63-9.318 105-10.788 42-1.47 63 11.551 105 3.437s63-14.232 105-44.007c42-29.774 63-64.602 105-104.867 42-40.266 63-89.085 105-96.46 42-7.374 63 43.145 105 59.588 42 16.442 63 36.222 105 22.625 42-13.597 63-82.88 105-90.61 42-7.732 63 79.9 105 51.955 42-27.945 63-140.554 105-191.682 42-51.129 63-9.886 105-63.959 42-54.073 63-189.99 105-206.408 42-16.417 63 119.109 105 124.321 42 5.213 84-78.605 105-98.257l5 870.827H0Z" fill="#444cf71a"/><path d="M0 986.856c21-6.525 63-14.267 105-32.627 42-18.36 63-47.089 105-59.173 42-12.085 63-.228 105-1.249 42-1.02 63 20.049 105-3.856 42-23.904 63-90.375 105-115.666 42-25.291 63-9.318 105-10.788 42-1.47 63 11.551 105 3.437s63-14.232 105-44.007c42-29.774 63-64.602 105-104.867 42-40.266 63-89.085 105-96.46 42-7.374 63 43.145 105 59.588 42 16.442 63 36.222 105 22.625 42-13.597 63-82.88 105-90.61 42-7.732 63 79.9 105 51.955 42-27.945 63-140.554 105-191.682 42-51.129 63-9.886 105-63.959 42-54.073 63-189.99 105-206.408 42-16.417 63 119.109 105 124.321 42 5.213 84-78.605 105-98.257" fill="none" stroke="#444cf7" stroke-width="4"/><g fill="#444cf7"><circle cy="986.856" r="8"/><circle cx="105" cy="954.229" r="8"/><circle cx="210" cy="895.056" r="8"/><circle cx="315" cy="893.807" r="8"/><circle cx="420" cy="889.951" r="8"/><circle cx="525" cy="774.285" r="8"/><circle cx="630" cy="763.497" r="8"/><circle cx="735" cy="766.934" r="8"/><circle cx="840" cy="722.927" r="8"/><circle cx="945" cy="618.06" r="8"/><circle cx="1050" cy="521.601" r="8"/><circle cx="1155" cy="581.188" r="8"/><circle cx="1260" cy="603.813" r="8"/><circle cx="1365" cy="513.202" r="8"/><circle cx="1470" cy="565.158" r="8"/><circle cx="1575" cy="373.476" r="8"/><circle cx="1680" cy="309.517" r="8"/><circle cx="1785" cy="103.109" r="8"/><circle cx="1890" cy="227.43" r="8"/><circle cx="1995" cy="129.173" r="8"/></g></svg>