<svg xmlns="http://www.w3.org/2000/svg" width="2000" height="1000"><path d="M0 989.485c21-5.65 63-15.214 105-28.255 42-13.04 63-24.575 105-36.95 42-12.374 63-17.93 105-24.922 42-6.993 63 1.642 105-10.04 42-11.683 63-29.295 105-48.374 42-19.08 63-8.6 105-47.023 42-38.424 63-126.908 105-145.097 42-18.188 63 60.24 105 54.154 42-6.086 63-63.55 105-84.584 42-21.034 63 3.64 105-20.585 42-24.224 63-117.006 105-100.537 42 16.468 63 219.257 105 182.879 42-36.379 63-286.423 105-364.772 42-78.349 63-11.906 105-26.974s63-47.337 105-48.364c42-1.027 63 5.65 105 43.23 42 37.578 63 139.613 105 144.663 42 5.05 63-76.339 105-119.414s84-76.769 105-95.961l5 787.441H0Z" fill="#444cf71a"/><path d="M0 989.485c21-5.65 63-15.214 105-28.255 42-13.04 63-24.575 105-36.95 42-12.374 63-17.93 105-24.922 42-6.993 63 1.642 105-10.04 42-11.683 63-29.295 105-48.374 42-19.08 63-8.6 105-47.023 42-38.424 63-126.908 105-145.097 42-18.188 63 60.24 105 54.154 42-6.086 63-63.55 105-84.584 42-21.034 63 3.64 105-20.585 42-24.224 63-117.006 105-100.537 42 16.468 63 219.257 105 182.879 42-36.379 63-286.423 105-364.772 42-78.349 63-11.906 105-26.974s63-47.337 105-48.364c42-1.027 63 5.65 105 43.23 42 37.578 63 139.613 105 144.663 42 5.05 63-76.339 105-119.414s84-76.769 105-95.961" fill="none" stroke="#444cf7" stroke-width="4"/><g fill="#444cf7"><circle cy="989.485" r="8"/><circle cx="105" cy="961.23" r="8"/><circle cx="210" cy="924.28" r="8"/><circle cx="315" cy="899.358" r="8"/><circle cx="420" cy="889.317" r="8"/><circle cx="525" cy="840.944" r="8"/><circle cx="630" cy="793.921" r="8"/><circle cx="735" cy="648.824" r="8"/><circle cx="840" cy="702.978" r="8"/><circle cx="945" cy="618.394" r="8"/><circle cx="1050" cy="597.809" r="8"/><circle cx="1155" cy="497.272" r="8"/><circle cx="1260" cy="680.151" r="8"/><circle cx="1365" cy="315.379" r="8"/><circle cx="1470" cy="288.405" r="8"/><circle cx="1575" cy="240.041" r="8"/><circle cx="1680" cy="283.27" r="8"/><circle cx="1785" cy="427.934" r="8"/><circle cx="1890" cy="308.52" r="8"/><circle cx="1995" cy="212.559" r="8"/></g></svg>