<svg xmlns="http://www.w3.org/2000/svg" width="2000" height="1000"><path d="M0 993.06c21-5.228 63-9.263 105-26.138s63-34.836 105-58.236 63-50.462 105-58.76c42-8.3 63 31.472 105 17.268s63-55.153 105-88.29c42-33.135 63-58.037 105-77.39s63-28.664 105-19.374c42 9.29 63 94.85 105 65.823 42-29.025 63-165.088 105-210.95 42-45.863 63-49.707 105-18.36 42 31.345 63 171.454 105 175.09 42 3.634 63-110.427 105-156.915 42-46.488 63-79.063 105-75.526 42 3.538 63 125.557 105 93.214 42-32.344 63-254.565 105-254.932 42-.366 63 231.254 105 253.099 42 21.844 63-127.858 105-143.874 42-16.016 63 110.48 105 63.792 42-46.687 84-237.784 105-297.23l5 824.629H0Z" fill="#444cf71a"/><path d="M0 993.06c21-5.228 63-9.263 105-26.138s63-34.836 105-58.236 63-50.462 105-58.76c42-8.3 63 31.472 105 17.268s63-55.153 105-88.29c42-33.135 63-58.037 105-77.39s63-28.664 105-19.374c42 9.29 63 94.85 105 65.823 42-29.025 63-165.088 105-210.95 42-45.863 63-49.707 105-18.36 42 31.345 63 171.454 105 175.09 42 3.634 63-110.427 105-156.915 42-46.488 63-79.063 105-75.526 42 3.538 63 125.557 105 93.214 42-32.344 63-254.565 105-254.932 42-.366 63 231.254 105 253.099 42 21.844 63-127.858 105-143.874 42-16.016 63 110.48 105 63.792 42-46.687 84-237.784 105-297.23" fill="none" stroke="#444cf7" stroke-width="4"/><g fill="#444cf7"><circle cy="993.059" r="8"/><circle cx="105" cy="966.922" r="8"/><circle cx="210" cy="908.686" r="8"/><circle cx="315" cy="849.925" r="8"/><circle cx="420" cy="867.194" r="8"/><circle cx="525" cy="778.905" r="8"/><circle cx="630" cy="701.514" r="8"/><circle cx="735" cy="682.14" r="8"/><circle cx="840" cy="747.963" r="8"/><circle cx="945" cy="537.012" r="8"/><circle cx="1050" cy="518.652" r="8"/><circle cx="1155" cy="693.742" r="8"/><circle cx="1260" cy="536.828" r="8"/><circle cx="1365" cy="461.302" r="8"/><circle cx="1470" cy="554.516" r="8"/><circle cx="1575" cy="299.584" r="8"/><circle cx="1680" cy="552.683" r="8"/><circle cx="1785" cy="408.809" r="8"/><circle cx="1890" cy="472.601" r="8"/><circle cx="1995" cy="175.371" r="8"/></g></svg>