<svg xmlns="http://www.w3.org/2000/svg" width="2000" height="1000"><path d="M0 987.2c21-4.532 63-12.34 105-22.658 42-10.317 63-15.358 105-28.929 42-13.57 63-12.347 105-38.923s63-84.98 105-93.958c42-8.98 63 55.835 105 49.064 42-6.77 63-54.057 105-82.919 42-28.862 63-46.35 105-61.392 42-15.04 63-8.101 105-13.813 42-5.711 63-2.717 105-14.744 42-12.028 63 2.011 105-45.394 42-47.406 63-190.152 105-191.636 42-1.483 63 152.035 105 184.216 42 32.18 63 41.606 105-23.31 42-64.917 63-266.91 105-301.272 42-34.362 63 158.241 105 129.464 42-28.777 63-243.702 105-273.348 42-29.646 63 117.917 105 125.118 42 7.2 63-105.046 105-89.115 42 15.931 84 135.016 105 168.77l5 637.579H0Z" fill="#444cf71a"/><path d="M0 987.2c21-4.532 63-12.34 105-22.658 42-10.317 63-15.358 105-28.929 42-13.57 63-12.347 105-38.923s63-84.98 105-93.958c42-8.98 63 55.835 105 49.064 42-6.77 63-54.057 105-82.919 42-28.862 63-46.35 105-61.392 42-15.04 63-8.101 105-13.813 42-5.711 63-2.717 105-14.744 42-12.028 63 2.011 105-45.394 42-47.406 63-190.152 105-191.636 42-1.483 63 152.035 105 184.216 42 32.18 63 41.606 105-23.31 42-64.917 63-266.91 105-301.272 42-34.362 63 158.241 105 129.464 42-28.777 63-243.702 105-273.348 42-29.646 63 117.917 105 125.118 42 7.2 63-105.046 105-89.115 42 15.931 84 135.016 105 168.77" fill="none" stroke="#444cf7" stroke-width="4"/><g fill="#444cf7"><circle cy="987.2" r="8"/><circle cx="105" cy="964.542" r="8"/><circle cx="210" cy="935.613" r="8"/><circle cx="315" cy="896.69" r="8"/><circle cx="420" cy="802.732" r="8"/><circle cx="525" cy="851.796" r="8"/><circle cx="630" cy="768.877" r="8"/><circle cx="735" cy="707.485" r="8"/><circle cx="840" cy="693.672" r="8"/><circle cx="945" cy="678.928" r="8"/><circle cx="1050" cy="633.534" r="8"/><circle cx="1155" cy="441.898" r="8"/><circle cx="1260" cy="626.114" r="8"/><circle cx="1365" cy="602.804" r="8"/><circle cx="1470" cy="301.532" r="8"/><circle cx="1575" cy="430.996" r="8"/><circle cx="1680" cy="157.648" r="8"/><circle cx="1785" cy="282.766" r="8"/><circle cx="1890" cy="193.651" r="8"/><circle cx="1995" cy="362.422" r="8"/></g></svg>