<svg xmlns="http://www.w3.org/2000/svg" width="2000" height="1000"><path d="M0 995.558c21-7.507 63-23.92 105-37.534 42-13.614 63-12.797 105-30.535 42-17.739 63-31.14 105-58.158s63-64.734 105-76.931c42-12.198 63 36.38 105 15.943 42-20.437 63-115.172 105-118.13 42-2.958 63 123.333 105 103.342s63-165.919 105-203.297c42-37.378 63 36.388 105 16.406s63-135.018 105-116.316c42 18.703 63 192.436 105 209.83 42 17.394 63-99.38 105-122.86 42-23.48 63 2.298 105 5.46 42 3.161 63 22.447 105 10.348 42-12.1 63-14.781 105-70.846 42-56.065 63-155.807 105-209.478 42-53.672 63-13.32 105-58.88s63-187.183 105-168.92c42 18.263 84 208.188 105 260.236l5 654.762H0Z" fill="#444cf71a"/><path d="M0 995.558c21-7.507 63-23.92 105-37.534 42-13.614 63-12.797 105-30.535 42-17.739 63-31.14 105-58.158s63-64.734 105-76.931c42-12.198 63 36.38 105 15.943 42-20.437 63-115.172 105-118.13 42-2.958 63 123.333 105 103.342s63-165.919 105-203.297c42-37.378 63 36.388 105 16.406s63-135.018 105-116.316c42 18.703 63 192.436 105 209.83 42 17.394 63-99.38 105-122.86 42-23.48 63 2.298 105 5.46 42 3.161 63 22.447 105 10.348 42-12.1 63-14.781 105-70.846 42-56.065 63-155.807 105-209.478 42-53.672 63-13.32 105-58.88s63-187.183 105-168.92c42 18.263 84 208.188 105 260.236" fill="none" stroke="#444cf7" stroke-width="4"/><g fill="#444cf7"><circle cy="995.558" r="8"/><circle cx="105" cy="958.024" r="8"/><circle cx="210" cy="927.489" r="8"/><circle cx="315" cy="869.331" r="8"/><circle cx="420" cy="792.4" r="8"/><circle cx="525" cy="808.343" r="8"/><circle cx="630" cy="690.213" r="8"/><circle cx="735" cy="793.555" r="8"/><circle cx="840" cy="590.258" r="8"/><circle cx="945" cy="606.664" r="8"/><circle cx="1050" cy="490.348" r="8"/><circle cx="1155" cy="700.178" r="8"/><circle cx="1260" cy="577.318" r="8"/><circle cx="1365" cy="582.778" r="8"/><circle cx="1470" cy="593.126" r="8"/><circle cx="1575" cy="522.28" r="8"/><circle cx="1680" cy="312.802" r="8"/><circle cx="1785" cy="253.922" r="8"/><circle cx="1890" cy="85.002" r="8"/><circle cx="1995" cy="345.238" r="8"/></g></svg>